<svg width="214" height="32" viewBox="0 0 214 32" fill="none" xmlns="http://www.w3.org/2000/svg">
<path d="M52.8867 16.8877H48.1387L48.1133 14.2725H52.0996C52.8021 14.2725 53.3776 14.1836 53.8262 14.0059C54.2747 13.8197 54.609 13.5531 54.8291 13.2061C55.0576 12.8506 55.1719 12.4189 55.1719 11.9111C55.1719 11.3356 55.0618 10.8701 54.8418 10.5146C54.6302 10.1592 54.2959 9.90104 53.8389 9.74023C53.3903 9.57943 52.8105 9.49902 52.0996 9.49902H49.459V25H45.6504V6.51562H52.0996C53.1745 6.51562 54.1351 6.61719 54.9814 6.82031C55.8363 7.02344 56.5599 7.33236 57.1523 7.74707C57.7448 8.16178 58.1976 8.68652 58.5107 9.32129C58.8239 9.94759 58.9805 10.6924 58.9805 11.5557C58.9805 12.3174 58.807 13.0199 58.46 13.6631C58.1214 14.3063 57.584 14.8311 56.8477 15.2373C56.1198 15.6436 55.1676 15.8678 53.9912 15.9102L52.8867 16.8877ZM52.7217 25H47.0977L48.583 22.0293H52.7217C53.3903 22.0293 53.9362 21.9235 54.3594 21.7119C54.7826 21.4919 55.0957 21.1956 55.2988 20.8232C55.502 20.4508 55.6035 20.0234 55.6035 19.541C55.6035 18.9993 55.5104 18.5296 55.3242 18.1318C55.1465 17.734 54.8587 17.4294 54.4609 17.2178C54.0632 16.9977 53.5384 16.8877 52.8867 16.8877H49.2178L49.2432 14.2725H53.8135L54.6895 15.3008C55.8151 15.2839 56.7207 15.4827 57.4062 15.8975C58.1003 16.3037 58.6038 16.8327 58.917 17.4844C59.2386 18.1361 59.3994 18.8343 59.3994 19.5791C59.3994 20.764 59.1413 21.7627 58.625 22.5752C58.1087 23.3792 57.3512 23.9844 56.3525 24.3906C55.3623 24.7969 54.152 25 52.7217 25ZM61.4434 18.2715V18.0049C61.4434 16.9977 61.5872 16.071 61.875 15.2246C62.1628 14.3698 62.5817 13.6292 63.1318 13.0029C63.682 12.3766 64.359 11.89 65.1631 11.543C65.9671 11.1875 66.8896 11.0098 67.9307 11.0098C68.9717 11.0098 69.8984 11.1875 70.7109 11.543C71.5234 11.89 72.2048 12.3766 72.7549 13.0029C73.3135 13.6292 73.7367 14.3698 74.0244 15.2246C74.3122 16.071 74.4561 16.9977 74.4561 18.0049V18.2715C74.4561 19.2702 74.3122 20.1969 74.0244 21.0518C73.7367 21.8981 73.3135 22.6387 72.7549 23.2734C72.2048 23.8997 71.5277 24.3864 70.7236 24.7334C69.9196 25.0804 68.9971 25.2539 67.9561 25.2539C66.915 25.2539 65.9883 25.0804 65.1758 24.7334C64.3717 24.3864 63.6904 23.8997 63.1318 23.2734C62.5817 22.6387 62.1628 21.8981 61.875 21.0518C61.5872 20.1969 61.4434 19.2702 61.4434 18.2715ZM65.0996 18.0049V18.2715C65.0996 18.847 65.1504 19.3844 65.252 19.8838C65.3535 20.3831 65.5143 20.8232 65.7344 21.2041C65.9629 21.5765 66.2591 21.8685 66.623 22.0801C66.987 22.2917 67.4313 22.3975 67.9561 22.3975C68.4639 22.3975 68.8997 22.2917 69.2637 22.0801C69.6276 21.8685 69.9196 21.5765 70.1396 21.2041C70.3597 20.8232 70.5205 20.3831 70.6221 19.8838C70.7321 19.3844 70.7871 18.847 70.7871 18.2715V18.0049C70.7871 17.4463 70.7321 16.9215 70.6221 16.4307C70.5205 15.9313 70.3555 15.4912 70.127 15.1104C69.9069 14.721 69.6149 14.4163 69.251 14.1963C68.887 13.9762 68.4469 13.8662 67.9307 13.8662C67.4144 13.8662 66.9743 13.9762 66.6104 14.1963C66.2549 14.4163 65.9629 14.721 65.7344 15.1104C65.5143 15.4912 65.3535 15.9313 65.252 16.4307C65.1504 16.9215 65.0996 17.4463 65.0996 18.0049ZM84.1172 21.9023V15.7832C84.1172 15.3431 84.0452 14.9665 83.9014 14.6533C83.7575 14.3317 83.5332 14.082 83.2285 13.9043C82.9323 13.7266 82.5472 13.6377 82.0732 13.6377C81.667 13.6377 81.3158 13.7096 81.0195 13.8535C80.7233 13.9889 80.4948 14.1878 80.334 14.4502C80.1732 14.7041 80.0928 15.0046 80.0928 15.3516H76.4365C76.4365 14.7676 76.5719 14.2132 76.8428 13.6885C77.1136 13.1637 77.5072 12.7025 78.0234 12.3047C78.5397 11.8984 79.1533 11.5811 79.8643 11.3525C80.5837 11.124 81.3877 11.0098 82.2764 11.0098C83.3428 11.0098 84.2907 11.1875 85.1201 11.543C85.9495 11.8984 86.6012 12.4316 87.0752 13.1426C87.5576 13.8535 87.7988 14.7422 87.7988 15.8086V21.6865C87.7988 22.4398 87.8454 23.0576 87.9385 23.54C88.0316 24.014 88.167 24.4287 88.3447 24.7842V25H84.6504C84.4727 24.6276 84.3372 24.1621 84.2441 23.6035C84.1595 23.0365 84.1172 22.4694 84.1172 21.9023ZM84.5996 16.6338L84.625 18.7031H82.5811C82.0986 18.7031 81.6797 18.7581 81.3242 18.8682C80.9688 18.9782 80.6768 19.1348 80.4482 19.3379C80.2197 19.5326 80.0505 19.7611 79.9404 20.0234C79.8389 20.2858 79.7881 20.5736 79.7881 20.8867C79.7881 21.1999 79.86 21.4834 80.0039 21.7373C80.1478 21.9827 80.3551 22.1774 80.626 22.3213C80.8968 22.4567 81.2142 22.5244 81.5781 22.5244C82.1283 22.5244 82.6064 22.4144 83.0127 22.1943C83.4189 21.9743 83.7321 21.7035 83.9521 21.3818C84.1807 21.0602 84.2992 20.7555 84.3076 20.4678L85.2725 22.0166C85.137 22.3636 84.9508 22.7233 84.7139 23.0957C84.4854 23.4681 84.1934 23.8193 83.8379 24.1494C83.4824 24.471 83.055 24.7376 82.5557 24.9492C82.0563 25.1523 81.4639 25.2539 80.7783 25.2539C79.9066 25.2539 79.1152 25.0804 78.4043 24.7334C77.7018 24.3779 77.1432 23.8913 76.7285 23.2734C76.3223 22.6471 76.1191 21.9362 76.1191 21.1406C76.1191 20.4212 76.2546 19.7822 76.5254 19.2236C76.7962 18.665 77.194 18.1953 77.7188 17.8145C78.252 17.4251 78.9163 17.1331 79.7119 16.9385C80.5075 16.7354 81.43 16.6338 82.4795 16.6338H84.5996ZM94.2734 14.2598V25H90.6172V11.2637H94.0576L94.2734 14.2598ZM98.4121 11.1748L98.3486 14.5645C98.1709 14.5391 97.9551 14.5179 97.7012 14.501C97.4557 14.4756 97.2314 14.4629 97.0283 14.4629C96.512 14.4629 96.0635 14.5306 95.6826 14.666C95.3102 14.793 94.9971 14.9834 94.7432 15.2373C94.4977 15.4912 94.3115 15.8001 94.1846 16.1641C94.0661 16.528 93.9984 16.9427 93.9814 17.4082L93.2451 17.1797C93.2451 16.291 93.334 15.4743 93.5117 14.7295C93.6895 13.9762 93.9476 13.3203 94.2861 12.7617C94.6331 12.2031 95.0563 11.7715 95.5557 11.4668C96.055 11.1621 96.6263 11.0098 97.2695 11.0098C97.4727 11.0098 97.68 11.0267 97.8916 11.0605C98.1032 11.0859 98.2767 11.124 98.4121 11.1748ZM107.997 22.0039V5.5H111.679V25H108.365L107.997 22.0039ZM99.3135 18.2969V18.0303C99.3135 16.9808 99.432 16.0286 99.6689 15.1738C99.9059 14.3105 100.253 13.57 100.71 12.9521C101.167 12.3343 101.73 11.8561 102.398 11.5176C103.067 11.179 103.829 11.0098 104.684 11.0098C105.488 11.0098 106.19 11.179 106.791 11.5176C107.4 11.8561 107.917 12.3385 108.34 12.9648C108.771 13.5827 109.118 14.3148 109.381 15.1611C109.643 15.999 109.834 16.9173 109.952 17.916V18.5C109.834 19.4564 109.643 20.3451 109.381 21.166C109.118 21.987 108.771 22.7064 108.34 23.3242C107.917 23.9336 107.4 24.4076 106.791 24.7461C106.182 25.0846 105.471 25.2539 104.658 25.2539C103.803 25.2539 103.042 25.0804 102.373 24.7334C101.713 24.3864 101.154 23.8997 100.697 23.2734C100.249 22.6471 99.9059 21.9108 99.6689 21.0645C99.432 20.2181 99.3135 19.2956 99.3135 18.2969ZM102.97 18.0303V18.2969C102.97 18.8639 103.012 19.3929 103.097 19.8838C103.19 20.3747 103.338 20.8105 103.541 21.1914C103.753 21.5638 104.023 21.8558 104.354 22.0674C104.692 22.2705 105.103 22.3721 105.585 22.3721C106.211 22.3721 106.728 22.2324 107.134 21.9531C107.54 21.6654 107.849 21.2718 108.061 20.7725C108.281 20.2731 108.408 19.6976 108.441 19.0459V17.3828C108.416 16.8496 108.34 16.3714 108.213 15.9482C108.094 15.5166 107.917 15.1484 107.68 14.8438C107.451 14.5391 107.163 14.3021 106.816 14.1328C106.478 13.9635 106.076 13.8789 105.61 13.8789C105.136 13.8789 104.73 13.9889 104.392 14.209C104.053 14.4206 103.778 14.7126 103.566 15.085C103.363 15.4574 103.211 15.8975 103.109 16.4053C103.016 16.9046 102.97 17.4463 102.97 18.0303ZM118.395 11.2637V25H114.726V11.2637H118.395ZM114.497 7.68359C114.497 7.15039 114.683 6.71029 115.056 6.36328C115.428 6.01628 115.927 5.84277 116.554 5.84277C117.172 5.84277 117.667 6.01628 118.039 6.36328C118.42 6.71029 118.61 7.15039 118.61 7.68359C118.61 8.2168 118.42 8.6569 118.039 9.00391C117.667 9.35091 117.172 9.52441 116.554 9.52441C115.927 9.52441 115.428 9.35091 115.056 9.00391C114.683 8.6569 114.497 8.2168 114.497 7.68359ZM124.996 14.1963V25H121.34V11.2637H124.768L124.996 14.1963ZM124.463 17.6494H123.473C123.473 16.6338 123.604 15.7197 123.866 14.9072C124.129 14.0863 124.497 13.388 124.971 12.8125C125.445 12.2285 126.007 11.7842 126.659 11.4795C127.319 11.1663 128.056 11.0098 128.868 11.0098C129.511 11.0098 130.1 11.1029 130.633 11.2891C131.166 11.4753 131.623 11.7715 132.004 12.1777C132.393 12.584 132.689 13.1214 132.893 13.79C133.104 14.4587 133.21 15.2754 133.21 16.2402V25H129.528V16.2275C129.528 15.6182 129.444 15.1442 129.274 14.8057C129.105 14.4671 128.855 14.2301 128.525 14.0947C128.204 13.9508 127.806 13.8789 127.332 13.8789C126.841 13.8789 126.414 13.9762 126.05 14.1709C125.694 14.3656 125.398 14.6364 125.161 14.9834C124.933 15.3219 124.759 15.7197 124.641 16.1768C124.522 16.6338 124.463 17.1247 124.463 17.6494ZM144.687 11.2637H148V24.543C148 25.7956 147.721 26.8577 147.162 27.7295C146.612 28.6097 145.842 29.2741 144.852 29.7227C143.861 30.1797 142.71 30.4082 141.398 30.4082C140.823 30.4082 140.214 30.332 139.57 30.1797C138.936 30.0273 138.326 29.7904 137.742 29.4688C137.167 29.1471 136.684 28.7409 136.295 28.25L137.907 26.0918C138.33 26.5827 138.821 26.9635 139.38 27.2344C139.938 27.5137 140.556 27.6533 141.233 27.6533C141.894 27.6533 142.452 27.5306 142.909 27.2852C143.366 27.0482 143.717 26.6969 143.963 26.2314C144.208 25.7744 144.331 25.2201 144.331 24.5684V14.4375L144.687 11.2637ZM135.444 18.2969V18.0303C135.444 16.9808 135.571 16.0286 135.825 15.1738C136.088 14.3105 136.456 13.57 136.93 12.9521C137.412 12.3343 137.996 11.8561 138.682 11.5176C139.367 11.179 140.142 11.0098 141.005 11.0098C141.919 11.0098 142.685 11.179 143.303 11.5176C143.921 11.8561 144.428 12.3385 144.826 12.9648C145.224 13.5827 145.533 14.3148 145.753 15.1611C145.981 15.999 146.159 16.9173 146.286 17.916V18.5C146.159 19.4564 145.969 20.3451 145.715 21.166C145.461 21.987 145.127 22.7064 144.712 23.3242C144.297 23.9336 143.781 24.4076 143.163 24.7461C142.554 25.0846 141.826 25.2539 140.979 25.2539C140.133 25.2539 139.367 25.0804 138.682 24.7334C138.005 24.3864 137.425 23.8997 136.942 23.2734C136.46 22.6471 136.088 21.9108 135.825 21.0645C135.571 20.2181 135.444 19.2956 135.444 18.2969ZM139.101 18.0303V18.2969C139.101 18.8639 139.156 19.3929 139.266 19.8838C139.376 20.3747 139.545 20.8105 139.773 21.1914C140.01 21.5638 140.302 21.8558 140.649 22.0674C141.005 22.2705 141.424 22.3721 141.906 22.3721C142.575 22.3721 143.121 22.2324 143.544 21.9531C143.967 21.6654 144.285 21.2718 144.496 20.7725C144.708 20.2731 144.83 19.6976 144.864 19.0459V17.3828C144.847 16.8496 144.775 16.3714 144.648 15.9482C144.521 15.5166 144.344 15.1484 144.115 14.8438C143.887 14.5391 143.59 14.3021 143.227 14.1328C142.863 13.9635 142.431 13.8789 141.932 13.8789C141.449 13.8789 141.03 13.9889 140.675 14.209C140.328 14.4206 140.036 14.7126 139.799 15.085C139.57 15.4574 139.397 15.8975 139.278 16.4053C139.16 16.9046 139.101 17.4463 139.101 18.0303ZM164.745 18.4111H160.035V15.4404H164.745C165.473 15.4404 166.065 15.3219 166.522 15.085C166.979 14.8395 167.314 14.501 167.525 14.0693C167.737 13.6377 167.843 13.151 167.843 12.6094C167.843 12.0592 167.737 11.5472 167.525 11.0732C167.314 10.5993 166.979 10.2184 166.522 9.93066C166.065 9.6429 165.473 9.49902 164.745 9.49902H161.355V25H157.547V6.51562H164.745C166.192 6.51562 167.432 6.77799 168.465 7.30273C169.506 7.81901 170.301 8.53418 170.852 9.44824C171.402 10.3623 171.677 11.4076 171.677 12.584C171.677 13.7773 171.402 14.8099 170.852 15.6816C170.301 16.5534 169.506 17.2262 168.465 17.7002C167.432 18.1742 166.192 18.4111 164.745 18.4111ZM181.338 21.9023V15.7832C181.338 15.3431 181.266 14.9665 181.122 14.6533C180.978 14.3317 180.754 14.082 180.449 13.9043C180.153 13.7266 179.768 13.6377 179.294 13.6377C178.888 13.6377 178.536 13.7096 178.24 13.8535C177.944 13.9889 177.715 14.1878 177.555 14.4502C177.394 14.7041 177.313 15.0046 177.313 15.3516H173.657C173.657 14.7676 173.793 14.2132 174.063 13.6885C174.334 13.1637 174.728 12.7025 175.244 12.3047C175.76 11.8984 176.374 11.5811 177.085 11.3525C177.804 11.124 178.608 11.0098 179.497 11.0098C180.563 11.0098 181.511 11.1875 182.341 11.543C183.17 11.8984 183.822 12.4316 184.296 13.1426C184.778 13.8535 185.02 14.7422 185.02 15.8086V21.6865C185.02 22.4398 185.066 23.0576 185.159 23.54C185.252 24.014 185.388 24.4287 185.565 24.7842V25H181.871C181.693 24.6276 181.558 24.1621 181.465 23.6035C181.38 23.0365 181.338 22.4694 181.338 21.9023ZM181.82 16.6338L181.846 18.7031H179.802C179.319 18.7031 178.9 18.7581 178.545 18.8682C178.189 18.9782 177.897 19.1348 177.669 19.3379C177.44 19.5326 177.271 19.7611 177.161 20.0234C177.06 20.2858 177.009 20.5736 177.009 20.8867C177.009 21.1999 177.081 21.4834 177.225 21.7373C177.368 21.9827 177.576 22.1774 177.847 22.3213C178.118 22.4567 178.435 22.5244 178.799 22.5244C179.349 22.5244 179.827 22.4144 180.233 22.1943C180.64 21.9743 180.953 21.7035 181.173 21.3818C181.401 21.0602 181.52 20.7555 181.528 20.4678L182.493 22.0166C182.358 22.3636 182.172 22.7233 181.935 23.0957C181.706 23.4681 181.414 23.8193 181.059 24.1494C180.703 24.471 180.276 24.7376 179.776 24.9492C179.277 25.1523 178.685 25.2539 177.999 25.2539C177.127 25.2539 176.336 25.0804 175.625 24.7334C174.923 24.3779 174.364 23.8913 173.949 23.2734C173.543 22.6471 173.34 21.9362 173.34 21.1406C173.34 20.4212 173.475 19.7822 173.746 19.2236C174.017 18.665 174.415 18.1953 174.939 17.8145C175.473 17.4251 176.137 17.1331 176.933 16.9385C177.728 16.7354 178.651 16.6338 179.7 16.6338H181.82ZM195.265 21.2041C195.265 20.9417 195.188 20.7048 195.036 20.4932C194.884 20.2816 194.6 20.0869 194.186 19.9092C193.779 19.723 193.191 19.5537 192.421 19.4014C191.727 19.249 191.079 19.0586 190.479 18.8301C189.886 18.5931 189.37 18.3096 188.93 17.9795C188.498 17.6494 188.16 17.2601 187.914 16.8115C187.669 16.3545 187.546 15.834 187.546 15.25C187.546 14.6745 187.669 14.1328 187.914 13.625C188.168 13.1172 188.528 12.6686 188.993 12.2793C189.467 11.8815 190.043 11.5726 190.72 11.3525C191.405 11.124 192.175 11.0098 193.03 11.0098C194.224 11.0098 195.248 11.2002 196.103 11.5811C196.966 11.9619 197.626 12.4867 198.083 13.1553C198.549 13.8154 198.781 14.5687 198.781 15.415H195.125C195.125 15.0596 195.049 14.7422 194.896 14.4629C194.753 14.1751 194.524 13.9508 194.211 13.79C193.906 13.6208 193.508 13.5361 193.018 13.5361C192.611 13.5361 192.26 13.6081 191.964 13.752C191.668 13.8874 191.439 14.0736 191.278 14.3105C191.126 14.5391 191.05 14.793 191.05 15.0723C191.05 15.2839 191.092 15.4743 191.177 15.6436C191.27 15.8044 191.418 15.9525 191.621 16.0879C191.824 16.2233 192.087 16.3503 192.408 16.4688C192.738 16.5788 193.145 16.6803 193.627 16.7734C194.617 16.9766 195.502 17.2432 196.28 17.5732C197.059 17.8949 197.677 18.335 198.134 18.8936C198.591 19.4437 198.819 20.1673 198.819 21.0645C198.819 21.6738 198.684 22.2324 198.413 22.7402C198.142 23.248 197.753 23.6924 197.245 24.0732C196.737 24.4456 196.128 24.7376 195.417 24.9492C194.715 25.1523 193.923 25.2539 193.043 25.2539C191.765 25.2539 190.682 25.0254 189.793 24.5684C188.913 24.1113 188.244 23.5316 187.787 22.8291C187.339 22.1182 187.114 21.3903 187.114 20.6455H190.58C190.597 21.1449 190.724 21.5469 190.961 21.8516C191.206 22.1562 191.515 22.3763 191.888 22.5117C192.269 22.6471 192.679 22.7148 193.119 22.7148C193.593 22.7148 193.987 22.6514 194.3 22.5244C194.613 22.389 194.85 22.2113 195.011 21.9912C195.18 21.7627 195.265 21.5003 195.265 21.2041ZM208.62 21.2041C208.62 20.9417 208.544 20.7048 208.392 20.4932C208.239 20.2816 207.956 20.0869 207.541 19.9092C207.135 19.723 206.547 19.5537 205.776 19.4014C205.082 19.249 204.435 19.0586 203.834 18.8301C203.242 18.5931 202.725 18.3096 202.285 17.9795C201.854 17.6494 201.515 17.2601 201.27 16.8115C201.024 16.3545 200.901 15.834 200.901 15.25C200.901 14.6745 201.024 14.1328 201.27 13.625C201.523 13.1172 201.883 12.6686 202.349 12.2793C202.823 11.8815 203.398 11.5726 204.075 11.3525C204.761 11.124 205.531 11.0098 206.386 11.0098C207.579 11.0098 208.603 11.2002 209.458 11.5811C210.321 11.9619 210.981 12.4867 211.438 13.1553C211.904 13.8154 212.137 14.5687 212.137 15.415H208.48C208.48 15.0596 208.404 14.7422 208.252 14.4629C208.108 14.1751 207.88 13.9508 207.566 13.79C207.262 13.6208 206.864 13.5361 206.373 13.5361C205.967 13.5361 205.616 13.6081 205.319 13.752C205.023 13.8874 204.795 14.0736 204.634 14.3105C204.481 14.5391 204.405 14.793 204.405 15.0723C204.405 15.2839 204.448 15.4743 204.532 15.6436C204.625 15.8044 204.773 15.9525 204.977 16.0879C205.18 16.2233 205.442 16.3503 205.764 16.4688C206.094 16.5788 206.5 16.6803 206.982 16.7734C207.973 16.9766 208.857 17.2432 209.636 17.5732C210.414 17.8949 211.032 18.335 211.489 18.8936C211.946 19.4437 212.175 20.1673 212.175 21.0645C212.175 21.6738 212.039 22.2324 211.769 22.7402C211.498 23.248 211.108 23.6924 210.601 24.0732C210.093 24.4456 209.483 24.7376 208.772 24.9492C208.07 25.1523 207.279 25.2539 206.398 25.2539C205.12 25.2539 204.037 25.0254 203.148 24.5684C202.268 24.1113 201.6 23.5316 201.143 22.8291C200.694 22.1182 200.47 21.3903 200.47 20.6455H203.936C203.952 21.1449 204.079 21.5469 204.316 21.8516C204.562 22.1562 204.871 22.3763 205.243 22.5117C205.624 22.6471 206.035 22.7148 206.475 22.7148C206.949 22.7148 207.342 22.6514 207.655 22.5244C207.968 22.389 208.205 22.2113 208.366 21.9912C208.535 21.7627 208.62 21.5003 208.62 21.2041Z" fill="#B291FF"/>
<path d="M13.7465 31.2672H11.7457C11.5447 31.2671 11.3468 31.2167 11.1703 31.1204C10.9938 31.0242 10.8443 30.8852 10.7354 30.7162C10.6264 30.5473 10.5616 30.3537 10.5468 30.1532C10.532 29.9527 10.5677 29.7517 10.6506 29.5685L15.4955 18.8768L8.22063 18.7152L5.56743 21.9299C5.06159 22.5657 4.65797 22.8491 3.62826 22.8491H2.28137C2.06811 22.856 1.85634 22.8113 1.66401 22.7189C1.47168 22.6266 1.30445 22.4892 1.17649 22.3185C0.997607 22.0772 0.821729 21.6683 0.993097 21.0851L2.4828 15.7486C2.49407 15.7088 2.5076 15.6689 2.52263 15.6298C2.52338 15.6261 2.52338 15.6223 2.52263 15.6186C2.50711 15.5795 2.49381 15.5396 2.4828 15.4991L0.991594 10.1288C0.829997 9.55679 1.00663 9.15693 1.18401 8.92167C1.30312 8.76362 1.45766 8.63572 1.63519 8.54826C1.81272 8.4608 2.0083 8.41621 2.2062 8.41809H3.62826C4.39716 8.41809 5.14352 8.76308 5.58246 9.32003L8.18079 12.4806L15.4955 12.3723L10.6521 1.6994C10.5691 1.51635 10.5332 1.31539 10.5479 1.11492C10.5625 0.914442 10.6272 0.720837 10.736 0.551802C10.8448 0.382767 10.9942 0.243695 11.1706 0.1473C11.347 0.0509043 11.5447 0.000261103 11.7457 0H13.7683C14.0505 0.00567048 14.3277 0.0748323 14.5795 0.20235C14.8313 0.329867 15.0511 0.512465 15.2227 0.736583L24.6216 12.1611L28.9637 12.0469C29.2816 12.0296 30.1625 12.0236 30.3662 12.0236C34.5196 12.0258 37 13.3742 37 15.6336C37 16.3446 36.7159 17.663 34.815 18.5018C33.6929 18.9978 32.1956 19.2489 30.3647 19.2489C30.1633 19.2489 29.2846 19.2429 28.9622 19.2256L24.6209 19.1098L15.1986 30.5344C15.0269 30.7575 14.8073 30.9392 14.556 31.066C14.3046 31.1929 14.028 31.2616 13.7465 31.2672Z" fill="#D4C4F8"/>
</svg>
